<?xml version="1.0" standalone="no"?>
<!DOCTYPE svg PUBLIC "-//W3C//DTD SVG 20010904//EN"
 "http://www.w3.org/TR/2001/REC-SVG-20010904/DTD/svg10.dtd">
<svg version="1.0" xmlns="http://www.w3.org/2000/svg"
 width="160.000000pt" height="160.000000pt" viewBox="0 0 160.000000 160.000000"
 preserveAspectRatio="xMidYMid meet">

<g transform="translate(0.000000,160.000000) scale(0.100000,-0.100000)"
fill="#000000" stroke="none">
<path d="M270 1325 l0 -75 -75 0 -75 0 0 -225 0 -225 75 0 75 0 0 -75 0 -75
75 0 75 0 0 -75 0 -75 75 0 75 0 0 -75 0 -75 75 0 75 0 0 -75 0 -75 80 0 80 0
0 75 0 75 75 0 75 0 0 75 0 75 75 0 75 0 0 75 0 75 75 0 75 0 0 75 0 75 75 0
75 0 0 225 0 225 -75 0 -75 0 0 75 0 75 -225 0 -225 0 0 -75 0 -75 -80 0 -80
0 0 75 0 75 -225 0 -225 0 0 -75z"/>
</g>
</svg>
